<svg xmlns="http://www.w3.org/2000/svg" viewBox="0 0 1920 1080" role="img" aria-label="Blue white crystalline project texture">
  <defs>
    <radialGradient id="mist" cx="48%" cy="38%" r="72%">
      <stop offset="0%" stop-color="#ffffff"/>
      <stop offset="40%" stop-color="#e7f7ff"/>
      <stop offset="100%" stop-color="#c9e0ff"/>
    </radialGradient>
    <filter id="blur" x="-20%" y="-20%" width="140%" height="140%">
      <feGaussianBlur stdDeviation="38"/>
    </filter>
    <pattern id="grain" width="64" height="64" patternUnits="userSpaceOnUse">
      <circle cx="12" cy="18" r="1.2" fill="#0071e3" opacity=".16"/>
      <circle cx="44" cy="31" r=".9" fill="#3b82f6" opacity=".12"/>
      <circle cx="26" cy="51" r="1.1" fill="#fff" opacity=".8"/>
    </pattern>
  </defs>
  <rect width="1920" height="1080" fill="url(#mist)"/>
  <rect width="1920" height="1080" fill="url(#grain)"/>
  <g filter="url(#blur)" opacity=".65">
    <circle cx="420" cy="260" r="170" fill="#60a5fa"/>
    <circle cx="1430" cy="220" r="210" fill="#93c5fd"/>
    <circle cx="1120" cy="810" r="260" fill="#38bdf8"/>
  </g>
  <g fill="none" stroke="#2b7fff" stroke-width="2" opacity=".22">
    <path d="M220 820C480 620 660 560 930 560s452-120 760-345"/>
    <path d="M180 290c310 170 528 260 796 260s460 80 730 236"/>
    <path d="M540 150l220 190-120 260 310 170 220-250 330 120"/>
  </g>
</svg>
