<svg xmlns="http://www.w3.org/2000/svg" viewBox="0 0 1920 1080" role="img" aria-label="Opened luminous blue portal">
  <defs>
    <radialGradient id="portal" cx="50%" cy="46%" r="58%">
      <stop offset="0%" stop-color="#ffffff"/>
      <stop offset="26%" stop-color="#8ee7ff"/>
      <stop offset="54%" stop-color="#1d8dff"/>
      <stop offset="100%" stop-color="#091733"/>
    </radialGradient>
    <radialGradient id="void" cx="50%" cy="50%" r="72%">
      <stop offset="0%" stop-color="#e8fbff"/>
      <stop offset="44%" stop-color="#155dd9"/>
      <stop offset="100%" stop-color="#061126"/>
    </radialGradient>
    <filter id="soft" x="-35%" y="-35%" width="170%" height="170%">
      <feGaussianBlur stdDeviation="18"/>
    </filter>
    <pattern id="stars" width="76" height="76" patternUnits="userSpaceOnUse">
      <circle cx="9" cy="13" r="1.6" fill="#fff" opacity=".85"/>
      <circle cx="54" cy="24" r="1.1" fill="#7dd3fc" opacity=".75"/>
      <circle cx="31" cy="60" r="1.3" fill="#bfdbfe" opacity=".55"/>
    </pattern>
  </defs>
  <rect width="1920" height="1080" fill="url(#void)"/>
  <rect width="1920" height="1080" fill="url(#stars)" opacity=".58"/>
  <ellipse cx="960" cy="540" rx="470" ry="385" fill="url(#portal)" filter="url(#soft)" opacity=".95"/>
  <ellipse cx="960" cy="540" rx="330" ry="270" fill="#ffffff" opacity=".58" filter="url(#soft)"/>
  <g fill="none" stroke="#effbff" stroke-width="8" opacity=".68">
    <path d="M545 914V456c0-226 178-358 415-358s415 132 415 358v458"/>
    <path d="M622 900V477c0-184 148-302 338-302s338 118 338 302v423"/>
  </g>
  <g opacity=".36" stroke="#9bdcff" stroke-width="3">
    <path d="M280 816C610 690 780 620 960 542c180-78 360-148 680-276"/>
    <path d="M320 274c310 120 465 188 640 268 175 80 345 152 642 286"/>
    <path d="M960 140v800M510 540h900"/>
  </g>
  <g fill="#ffffff" opacity=".9">
    <circle cx="836" cy="341" r="4"/>
    <circle cx="1154" cy="294" r="3"/>
    <circle cx="1236" cy="705" r="4"/>
    <circle cx="715" cy="690" r="3"/>
  </g>
</svg>
