<svg xmlns="http://www.w3.org/2000/svg" viewBox="0 0 64 64" role="img" aria-label="Yuhaojun resume portal icon">
  <defs>
    <linearGradient id="sky" x1="12" x2="52" y1="8" y2="58" gradientUnits="userSpaceOnUse">
      <stop stop-color="#fff6d8"/>
      <stop offset=".52" stop-color="#7dc9ff"/>
      <stop offset="1" stop-color="#14315c"/>
    </linearGradient>
    <linearGradient id="gold" x1="18" x2="48" y1="10" y2="54" gradientUnits="userSpaceOnUse">
      <stop stop-color="#fff3c5"/>
      <stop offset=".48" stop-color="#d5a135"/>
      <stop offset="1" stop-color="#8c5b0d"/>
    </linearGradient>
    <filter id="glow" x="-40%" y="-40%" width="180%" height="180%">
      <feGaussianBlur stdDeviation="2.4" result="blur"/>
      <feMerge>
        <feMergeNode in="blur"/>
        <feMergeNode in="SourceGraphic"/>
      </feMerge>
    </filter>
  </defs>
  <rect width="64" height="64" rx="18" fill="url(#sky)"/>
  <circle cx="22" cy="18" r="10" fill="#fff7d0" opacity=".9"/>
  <path d="M13 49c8-9 15-11 25-8 5 2 8 1 13-2 2-1 4 1 3 3-4 9-14 13-26 11-6-1-10-1-15 1-3 1-4-3 0-5Z" fill="#ffffff" opacity=".72"/>
  <path d="M20 50V27c0-11 7-18 12-18s12 7 12 18v23" fill="none" stroke="url(#gold)" stroke-width="4.6" stroke-linecap="round"/>
  <path d="M32 11v39" stroke="#effaff" stroke-width="2.3" stroke-linecap="round" filter="url(#glow)"/>
  <path d="M26 28v20M38 28v20" stroke="#f8e5af" stroke-width="3.2" stroke-linecap="round"/>
  <path d="M23 51h18" stroke="#fff6d6" stroke-width="4" stroke-linecap="round"/>
  <path d="M24 21c3-5 5-7 8-7s5 2 8 7" fill="none" stroke="#fff8de" stroke-width="2" stroke-linecap="round" opacity=".88"/>
  <text x="32" y="42" text-anchor="middle" font-family="Arial, Helvetica, sans-serif" font-size="18" font-weight="800" fill="#0b1b36">Y</text>
</svg>
